<svg width="360" height="360" viewBox="0 0 360 360" fill="none" xmlns="http://www.w3.org/2000/svg">
<path d="M179.999 359.923C279.368 359.923 359.922 279.369 359.922 180C359.922 80.6313 279.368 0.0770264 179.999 0.0770264C80.6303 0.0770264 0.0759888 80.6313 0.0759888 180C0.0759888 279.369 80.6303 359.923 179.999 359.923Z" fill="#FED940"/>
<path d="M359.923 180C359.923 279.367 279.366 359.924 179.999 359.924V0.0760498C279.367 0.0760498 359.923 80.6331 359.923 180V180Z" fill="#FFC024"/>
<path d="M117.811 176C140.731 176 159.311 151.903 159.311 122.178C159.311 92.453 140.731 68.3561 117.811 68.3561C94.8912 68.3561 76.311 92.453 76.311 122.178C76.311 151.903 94.8912 176 117.811 176Z" fill="white"/>
<path d="M242.189 176C265.109 176 283.689 151.903 283.689 122.178C283.689 92.453 265.109 68.3561 242.189 68.3561C219.269 68.3561 200.689 92.453 200.689 122.178C200.689 151.903 219.269 176 242.189 176Z" fill="#EFE8E6"/>
<path d="M117.811 125.645C133.631 125.645 146.456 112.82 146.456 97.0001C146.456 81.1799 133.631 68.3551 117.811 68.3551C101.991 68.3551 89.166 81.1799 89.166 97.0001C89.166 112.82 101.991 125.645 117.811 125.645Z" fill="#7F6866"/>
<path d="M242.189 176C258.009 176 270.834 163.175 270.834 147.355C270.834 131.535 258.009 118.71 242.189 118.71C226.369 118.71 213.544 131.535 213.544 147.355C213.544 163.175 226.369 176 242.189 176Z" fill="#634C4C"/>
<path d="M245.923 303.143C227.208 303.143 212.037 287.972 212.037 269.257V237.95H279.809V269.257C279.809 287.972 264.638 303.143 245.923 303.143V303.143Z" fill="#FF3B3B"/>
<path d="M104.056 261.996L59.097 238.314L73.08 211.771L104.056 228.088L142.024 208.088L179.995 228.088L217.964 208.089L255.937 228.089L286.921 211.771L300.901 238.314L255.937 261.995L217.964 241.995L179.995 261.996L142.024 241.996L104.056 261.996Z" fill="#7F6866"/>
<path d="M300.9 238.31L255.94 262L217.96 242L180 261.99V228.08L217.96 208.09L255.94 228.09L286.92 211.77L300.9 238.31Z" fill="#634C4C"/>
</svg>
