<svg width="378" height="390" viewBox="0 0 378 390" fill="none" xmlns="http://www.w3.org/2000/svg">
<path d="M351.39 72.167C336.394 54.428 287.654 0 189 0C90.346 0 41.606 54.428 26.61 72.167C1.692 101.643 -14.75 159.678 21.186 220.3C49.608 268.246 113.993 348.368 132.3 367.592C150.606 386.815 170.693 390 189 390C207.307 390 189 390 189 390C207.307 390 227.393 386.815 245.7 367.592C264.007 348.369 328.392 268.246 356.814 220.3C392.751 159.679 376.308 101.643 351.39 72.167V72.167Z" fill="#CEEAE7"/>
<path d="M356.81 220.3C328.39 268.25 264.01 348.37 245.7 367.59C236.54 377.2 226.95 382.81 217.35 386.01C207.75 389.2 198.16 390 189 390C188.67 390 188.33 390 188 389.99V0.00999832C188.33 -1.67824e-06 188.67 0 189 0C287.65 0 336.39 54.43 351.39 72.17C376.31 101.64 392.75 159.68 356.81 220.3V220.3Z" fill="#AED6D0"/>
<path d="M125.78 274.16L123.778 273.5C153.921 337.055 224.078 337.055 254.221 273.5L252.219 274.16C210.712 287.853 167.288 287.853 125.78 274.16Z" fill="#7F6866"/>
<path d="M254.22 273.5C239.151 305.278 214.076 321.167 189 321.167V284.433C210.231 284.433 231.463 281.005 252.222 274.16L254.22 273.5Z" fill="#634C4C"/>
<path d="M141.659 116.443C163.946 140.414 158.447 181.622 146.532 192.835C134.617 204.049 92.983 206.393 70.696 182.422C48.409 158.451 46.756 117.282 62.308 103.506C77.861 89.73 119.372 92.473 141.659 116.443V116.443Z" fill="#7F6866"/>
<path d="M236.341 116.443C214.054 140.414 219.553 181.622 231.468 192.835C243.383 204.049 285.017 206.393 307.304 182.422C329.591 158.451 331.244 117.282 315.692 103.506C300.139 89.73 258.628 92.473 236.341 116.443Z" fill="#634C4C"/>
</svg>
