<svg width="360" height="360" viewBox="0 0 360 360" fill="none" xmlns="http://www.w3.org/2000/svg">
<path d="M179.999 359.923C279.368 359.923 359.922 279.369 359.922 180C359.922 80.6313 279.368 0.0770264 179.999 0.0770264C80.6303 0.0770264 0.0760498 80.6313 0.0760498 180C0.0760498 279.369 80.6303 359.923 179.999 359.923Z" fill="#FED940"/>
<path d="M359.923 180C359.923 279.367 279.366 359.924 179.999 359.924V0.0760498C279.367 0.0760498 359.923 80.6331 359.923 180V180Z" fill="#FFC024"/>
<path d="M62.2371 90.868H92.2371C92.2371 101.222 100.661 109.645 111.015 109.645C121.369 109.645 129.792 101.222 129.792 90.868H159.792C159.792 117.764 137.91 139.645 111.015 139.645C84.1191 139.645 62.2371 117.764 62.2371 90.868Z" fill="#7F6866"/>
<path d="M180 220.225C210.511 220.225 236.53 239.774 246.222 267H282.63C271.924 220.226 229.974 185.225 180 185.225C130.026 185.225 88.076 220.226 77.37 267H113.778C123.47 239.774 149.489 220.225 180 220.225Z" fill="#7F6866"/>
<path d="M282.63 267H246.22C236.53 239.77 210.51 220.22 180 220.22V185.22C229.97 185.22 271.92 220.23 282.63 267Z" fill="#634C4C"/>
<path d="M261.964 170.575L227 218.128C212.789 237.456 214.89 265.136 231.833 281.793C248.84 298.513 275.087 298.513 292.094 281.793C309.036 265.136 311.138 237.457 296.927 218.128L261.964 170.575Z" fill="#2F9DE0"/>
<path d="M200.207 90.868H230.207C230.207 101.222 238.631 109.645 248.984 109.645C259.339 109.645 267.762 101.222 267.762 90.868H297.762C297.762 117.764 275.88 139.645 248.984 139.645C222.089 139.645 200.207 117.764 200.207 90.868Z" fill="#634C4C"/>
</svg>
