<svg width="360" height="360" viewBox="0 0 360 360" fill="none" xmlns="http://www.w3.org/2000/svg">
<path d="M179.999 359.923C279.368 359.923 359.922 279.369 359.922 180C359.922 80.6313 279.368 0.0770264 179.999 0.0770264C80.6303 0.0770264 0.0759888 80.6313 0.0759888 180C0.0759888 279.369 80.6303 359.923 179.999 359.923Z" fill="#FF816C"/>
<path d="M359.923 180C359.923 279.367 279.366 359.924 179.999 359.924V0.0760498C279.367 0.0760498 359.923 80.6331 359.923 180V180Z" fill="#FF6643"/>
<path d="M254.502 276.502H219.502C219.502 254.721 201.781 237 180 237C158.219 237 140.498 254.721 140.498 276.502H105.498C105.498 235.422 138.919 202 180 202C221.081 202 254.502 235.422 254.502 276.502Z" fill="#7F6866"/>
<path d="M149.558 134.056C145.019 151.097 129.481 163.656 111.006 163.656C88.98 163.656 71.131 145.807 71.131 123.781C71.131 112.545 75.781 102.382 83.272 95.1281L149.558 134.056Z" fill="#7F6866"/>
<path d="M288.867 123.781C288.867 145.807 271.018 163.656 248.992 163.656C230.517 163.656 214.979 151.098 210.44 134.056L276.726 95.1281C284.217 102.382 288.867 112.546 288.867 123.781Z" fill="#634C4C"/>
<path d="M254.5 276.5H219.5C219.5 254.72 201.78 237 180 237V202C221.08 202 254.5 235.42 254.5 276.5Z" fill="#634C4C"/>
</svg>
