<svg width="360" height="360" viewBox="0 0 360 360" fill="none" xmlns="http://www.w3.org/2000/svg">
<path d="M179.999 359.923C279.368 359.923 359.922 279.369 359.922 180C359.922 80.6313 279.368 0.0769958 179.999 0.0769958C80.6303 0.0769958 0.0759888 80.6313 0.0759888 180C0.0759888 279.369 80.6303 359.923 179.999 359.923Z" fill="#FED940"/>
<path d="M359.923 180C359.923 279.367 279.366 359.924 179.999 359.924V0.0759888C279.367 0.0759888 359.923 80.633 359.923 180Z" fill="#FFC024"/>
<path d="M117.811 137.644C133.631 137.644 146.455 124.82 146.455 109C146.455 93.1804 133.631 80.356 117.811 80.356C101.991 80.356 89.167 93.1804 89.167 109C89.167 124.82 101.991 137.644 117.811 137.644Z" fill="#7F6866"/>
<path d="M242.189 137.644C258.009 137.644 270.833 124.82 270.833 109C270.833 93.1804 258.009 80.356 242.189 80.356C226.369 80.356 213.545 93.1804 213.545 109C213.545 124.82 226.369 137.644 242.189 137.644Z" fill="#634C4C"/>
<path d="M285.277 276.501H250.277C250.277 237.75 218.751 206.224 180 206.224C141.249 206.224 109.723 237.75 109.723 276.501H74.723C74.723 218.451 121.95 171.224 180 171.224C238.05 171.224 285.277 218.452 285.277 276.501Z" fill="#7F6866"/>
<path d="M250.277 276.501H285.277C285.277 218.451 238.05 171.224 180 171.224H179.999V206.224H180C218.751 206.225 250.277 237.75 250.277 276.501Z" fill="#634C4C"/>
</svg>
