<svg width="360" height="360" viewBox="0 0 360 360" fill="none" xmlns="http://www.w3.org/2000/svg">
<path d="M179.999 359.923C279.368 359.923 359.922 279.369 359.922 180C359.922 80.6313 279.368 0.0769958 179.999 0.0769958C80.6303 0.0769958 0.0759888 80.6313 0.0759888 180C0.0759888 279.369 80.6303 359.923 179.999 359.923Z" fill="#FED940"/>
<path d="M359.923 180C359.923 279.367 279.366 359.924 179.999 359.924V0.0759888C279.367 0.0759888 359.923 80.633 359.923 180Z" fill="#FFC024"/>
<path d="M117.811 137.645C133.631 137.645 146.456 124.82 146.456 109C146.456 93.1798 133.631 80.355 117.811 80.355C101.991 80.355 89.166 93.1798 89.166 109C89.166 124.82 101.991 137.645 117.811 137.645Z" fill="#7F6866"/>
<path d="M242.189 137.645C258.009 137.645 270.834 124.82 270.834 109C270.834 93.1798 258.009 80.355 242.189 80.355C226.369 80.355 213.544 93.1798 213.544 109C213.544 124.82 226.369 137.645 242.189 137.645Z" fill="#634C4C"/>
<path d="M180 294.001C121.95 294.001 74.723 246.774 74.723 188.724H109.723C109.723 227.475 141.249 259.001 180 259.001C218.751 259.001 250.277 227.475 250.277 188.724H285.277C285.277 246.774 238.05 294.001 180 294.001Z" fill="#7F6866"/>
<path d="M285.277 188.725H250.277C250.277 227.476 218.751 259.002 180 259.002C180 259.002 180 259.002 179.999 259.002V294.002H180C238.05 294.001 285.277 246.774 285.277 188.725Z" fill="#634C4C"/>
</svg>
