<svg width="360" height="360" viewBox="0 0 360 360" fill="none" xmlns="http://www.w3.org/2000/svg">
<path d="M179.999 359.923C279.368 359.923 359.922 279.369 359.922 180C359.922 80.6313 279.368 0.0769958 179.999 0.0769958C80.6303 0.0769958 0.0759888 80.6313 0.0759888 180C0.0759888 279.369 80.6303 359.923 179.999 359.923Z" fill="#FED940"/>
<path d="M359.923 180C359.923 279.367 279.366 359.924 179.999 359.924V0.0759888C279.367 0.0759888 359.923 80.633 359.923 180Z" fill="#FFC024"/>
<path d="M139.704 86.738C116.849 78.709 107.421 100.518 107.421 100.518C107.421 100.518 97.993 78.709 75.138 86.738C51.506 95.04 42.855 144.718 107.421 170C171.987 144.718 163.336 95.039 139.704 86.738Z" fill="#FF6643"/>
<path d="M284.863 86.738C262.008 78.709 252.58 100.518 252.58 100.518C252.58 100.518 243.152 78.709 220.297 86.738C196.664 95.04 188.014 144.718 252.58 170C317.146 144.718 308.496 95.039 284.863 86.738Z" fill="#FF3B3B"/>
<path d="M83.464 217.081L80.407 216C126.436 320 233.564 320 279.593 216L276.536 217.081C213.154 239.487 146.846 239.487 83.464 217.081Z" fill="#7F6866"/>
<path d="M279.59 216C256.58 268 218.29 294 180 294V233.89C212.42 233.89 244.84 228.28 276.54 217.08L279.59 216Z" fill="#634C4C"/>
</svg>
