<svg width="398" height="377" viewBox="0 0 398 377" fill="none" xmlns="http://www.w3.org/2000/svg">
<path d="M110.405 0.182944C91.6381 -0.849056 75.1191 10.8129 69.1671 27.6859C62.9141 23.0819 55.3001 20.1789 46.9681 19.7199C24.1771 18.4669 4.68605 35.9259 3.43305 58.7169C2.85305 69.2649 6.28705 79.1019 12.3981 86.7559C5.48505 93.6939 0.993049 103.095 0.413049 113.643C-0.839951 136.434 16.6191 155.925 39.4101 157.178C62.2001 158.431 148.148 66.5079 149.401 43.7179C150.655 20.9269 133.196 1.43594 110.405 0.182944V0.182944Z" fill="#99DB72"/>
<path d="M287.593 0.182944C306.36 -0.849056 322.879 10.8129 328.831 27.6859C335.084 23.0819 342.698 20.1789 351.03 19.7199C373.82 18.4669 393.312 35.9259 394.565 58.7169C395.145 69.2649 391.711 79.1019 385.6 86.7559C392.513 93.6939 397.005 103.095 397.585 113.643C398.838 136.434 381.379 155.925 358.588 157.178C335.798 158.431 249.85 66.5079 248.597 43.7179C247.344 20.9279 264.803 1.43594 287.593 0.182944V0.182944Z" fill="#81BF58"/>
<path d="M198.999 376.162C298.368 376.162 378.922 295.608 378.922 196.239C378.922 96.8703 298.368 16.316 198.999 16.316C99.6303 16.316 19.076 96.8703 19.076 196.239C19.076 295.608 99.6303 376.162 198.999 376.162Z" fill="white"/>
<path d="M378.923 196.239C378.923 295.606 298.366 376.163 198.999 376.163V16.3149C298.367 16.3149 378.923 96.872 378.923 196.239V196.239Z" fill="#EFE8E6"/>
<path d="M173.502 148.143C179.699 121.314 162.974 94.5413 136.146 88.3437C109.317 82.1462 82.5446 98.8708 76.347 125.699C70.1495 152.528 86.8742 179.301 113.703 185.498C140.531 191.696 167.304 174.971 173.502 148.143Z" fill="#4BCCF9"/>
<path d="M294.287 181.93C319.242 170.251 330.005 140.553 318.326 115.598C306.647 90.6424 276.949 79.8797 251.993 91.5586C227.038 103.238 216.275 132.936 227.954 157.891C239.633 182.846 269.331 193.609 294.287 181.93Z" fill="#2F9DE0"/>
<path d="M124.992 156.001C135.574 156.001 144.152 147.423 144.152 136.841C144.152 126.259 135.574 117.681 124.992 117.681C114.41 117.681 105.832 126.259 105.832 136.841C105.832 147.423 114.41 156.001 124.992 156.001Z" fill="#7F6866"/>
<path d="M273.006 156.001C283.588 156.001 292.166 147.423 292.166 136.841C292.166 126.259 283.588 117.681 273.006 117.681C262.424 117.681 253.846 126.259 253.846 136.841C253.846 147.423 262.424 156.001 273.006 156.001Z" fill="#634C4C"/>
<path d="M198.999 271.94C223.161 271.94 242.748 256.569 242.748 237.607C242.748 218.645 223.161 203.274 198.999 203.274C174.837 203.274 155.25 218.645 155.25 237.607C155.25 256.569 174.837 271.94 198.999 271.94Z" fill="#FF6643"/>
<path d="M198.999 338.904C164.428 338.904 131.218 325.132 102.024 298.873C94.358 291.977 94.283 279.976 101.863 272.985C108.473 266.889 118.663 266.757 125.349 272.769C148.063 293.195 173.277 303.903 199 303.903C224.722 303.903 249.937 293.194 272.651 272.769C279.337 266.757 289.526 266.889 296.136 272.984C303.716 279.974 303.642 291.977 295.976 298.872C266.78 325.132 233.57 338.904 198.999 338.904V338.904Z" fill="#FF6643"/>
<path d="M242.75 237.61C242.75 256.57 223.16 271.94 199 271.94V203.27C223.16 203.27 242.75 218.64 242.75 237.61Z" fill="#FF3B3B"/>
<path d="M301.78 285.85C301.78 290.63 299.84 295.4 295.98 298.87C266.78 325.13 233.57 338.9 199 338.9V303.9C224.72 303.9 249.94 293.19 272.65 272.77C279.34 266.76 289.53 266.89 296.14 272.98C299.9 276.45 301.78 281.15 301.78 285.85V285.85Z" fill="#FF3B3B"/>
</svg>
