<svg width="360" height="360" viewBox="0 0 360 360" fill="none" xmlns="http://www.w3.org/2000/svg">
<path d="M179.999 359.923C279.368 359.923 359.922 279.369 359.922 180C359.922 80.6313 279.368 0.0770264 179.999 0.0770264C80.6303 0.0770264 0.0759888 80.6313 0.0759888 180C0.0759888 279.369 80.6303 359.923 179.999 359.923Z" fill="#FED940"/>
<path d="M359.923 180C359.923 279.367 279.366 359.924 179.999 359.924V0.0760498C279.367 0.0760498 359.923 80.6331 359.923 180V180Z" fill="#FFC024"/>
<path d="M114.778 52.009L129.617 79.594L160.438 85.182L138.788 107.819L142.997 138.858L114.778 125.263L86.559 138.858L90.769 107.819L69.119 85.182L99.94 79.594L114.778 52.009Z" fill="#FFF6D2"/>
<path d="M245.222 52.009L260.06 79.594L290.881 85.182L269.231 107.819L273.441 138.858L245.222 125.263L217.003 138.858L221.212 107.819L199.562 85.182L230.383 79.594L245.222 52.009Z" fill="#FFEDA1"/>
<path d="M286.39 174C286.39 186.61 284.66 198.75 281.43 210.17C278.01 222.34 272.89 233.68 266.4 243.83C263.04 249.1 259.3 254.04 255.23 258.62C235.98 280.28 209.38 293.67 180 293.67C144.41 293.67 112.91 274.02 93.6 243.83C87.11 233.68 81.99 222.34 78.57 210.17C75.34 198.75 73.61 186.61 73.61 174H286.39Z" fill="#7F6866"/>
<path d="M286.39 174C286.39 186.61 284.66 198.75 281.43 210.17C278.01 222.34 272.89 233.68 266.4 243.83C263.04 249.1 259.3 254.04 255.23 258.62C235.98 280.28 209.38 293.67 180 293.67V174H286.39Z" fill="#634C4C"/>
<path d="M286.39 174C286.39 186.61 284.66 198.75 281.43 210.17H78.57C75.34 198.75 73.61 186.61 73.61 174H286.39Z" fill="white"/>
<path d="M286.39 174C286.39 186.61 284.66 198.75 281.43 210.17H180V174H286.39Z" fill="#EFE8E6"/>
</svg>
